<svg xmlns="http://www.w3.org/2000/svg" style="display:none">
<symbol id="house" viewBox="0 0 16 16">
  <path d="M8 1.5L1 7.5h2v6h4v-4h2v4h4v-6h2z"/>
</symbol>
<symbol id="people" viewBox="0 0 16 16">
  <circle cx="6" cy="5" r="2"/><path d="M3 13c0-1.7 1.3-3 3-3h2c1.7 0 3 1.3 3 3v1H3z"/>
  <circle cx="12" cy="5" r="1.5"/><path d="M10 13h4v-1c0-1-1-2-2-2s-2 1-2 2z"/>
</symbol>
<symbol id="cash" viewBox="0 0 16 16">
  <rect x="1" y="3" width="14" height="10" rx="1" fill="none" stroke="currentColor" stroke-width="1.2"/>
  <circle cx="8" cy="8" r="2"/><path d="M4 6h1M11 10h1"/>
</symbol>
<symbol id="file-earmark-text" viewBox="0 0 16 16">
  <path d="M4 1h6l4 4v10H4z" fill="none" stroke="currentColor" stroke-width="1.1"/>
  <path d="M10 1v4h4" fill="none" stroke="currentColor" stroke-width="1.1"/>
  <path d="M6 7h4M6 9h4M6 11h2"/>
</symbol>
<symbol id="calendar-event" viewBox="0 0 16 16">
  <rect x="1" y="3" width="14" height="11" rx="1" fill="none" stroke="currentColor" stroke-width="1.1"/>
  <path d="M1 6h14M4 1v2M12 1v2" fill="none" stroke="currentColor" stroke-width="1.1"/>
  <circle cx="8" cy="10" r="1.2"/>
</symbol>
<symbol id="wallet" viewBox="0 0 16 16">
  <path d="M1 4h14v9H1z" fill="none" stroke="currentColor" stroke-width="1.1"/>
  <path d="M2 4V2h12v2" fill="none" stroke="currentColor" stroke-width="1.1"/>
  <circle cx="11" cy="8.5" r="1.5"/>
</symbol>
<symbol id="gift" viewBox="0 0 16 16">
  <rect x="3" y="7" width="10" height="7"/>
  <path d="M3 7v0a2 2 0 0 1 2-2h2a2 2 0 0 1 0 4H3z"/>
  <path d="M13 7v0a2 2 0 0 0-2-2H9a2 2 0 0 0 0 4h4z"/>
  <path d="M8 5v9"/>
</symbol>
<symbol id="file-earmark-excel" viewBox="0 0 16 16">
  <path d="M4 1h6l4 4v10H4z" fill="none" stroke="currentColor" stroke-width="1.1"/>
  <path d="M10 1v4h4" fill="none" stroke="currentColor" stroke-width="1.1"/>
  <path d="M6 7l3 4M9 7l-3 4"/>
</symbol>
<symbol id="gear" viewBox="0 0 16 16">
  <circle cx="8" cy="8" r="3" fill="none" stroke="currentColor" stroke-width="1.3"/>
  <path d="M8 1.5v2M8 12.5v2M1.5 8h2M12.5 8h2M3 3l1.4 1.4M11.6 11.6L13 13M3 13l1.4-1.4M11.6 4.4L13 3" fill="none" stroke="currentColor" stroke-width="1.3"/>
</symbol>
<symbol id="box-arrow-right" viewBox="0 0 16 16">
  <path d="M3 2h10v12H3z" fill="none" stroke="currentColor" stroke-width="1.1"/>
  <path d="M7 5l4 3-4 3M7 8H1" fill="none" stroke="currentColor" stroke-width="1.3"/>
</symbol>
<symbol id="plus-lg" viewBox="0 0 16 16">
  <path d="M8 1v14M1 8h14" fill="none" stroke="currentColor" stroke-width="2" stroke-linecap="round"/>
</symbol>
<symbol id="pencil" viewBox="0 0 16 16">
  <path d="M12.2 2.2l1.6 1.6-9 9-2.8.4.4-2.8z" fill="none" stroke="currentColor" stroke-width="1.2"/>
  <path d="M11 3l2 2"/>
</symbol>
<symbol id="trash" viewBox="0 0 16 16">
  <path d="M3 5h10M5 5v9a1 1 0 0 0 1 1h4a1 1 0 0 0 1-1V5M6 3h4" fill="none" stroke="currentColor" stroke-width="1.2"/>
</symbol>
<symbol id="eye" viewBox="0 0 16 16">
  <path d="M1 8s2.5-5 7-5 7 5 7 5-2.5 5-7 5-7-5-7-5z" fill="none" stroke="currentColor" stroke-width="1.2"/>
  <circle cx="8" cy="8" r="2.5" fill="none" stroke="currentColor" stroke-width="1.2"/>
</symbol>
<symbol id="search" viewBox="0 0 16 16">
  <circle cx="6.5" cy="6.5" r="4.5" fill="none" stroke="currentColor" stroke-width="1.5"/>
  <path d="M10 10l4 4" fill="none" stroke="currentColor" stroke-width="1.5"/>
</symbol>
<symbol id="filter" viewBox="0 0 16 16">
  <path d="M1 3h14M3 3v3l4 4v6h2v-6l4-4V3" fill="none" stroke="currentColor" stroke-width="1.2"/>
</symbol>
<symbol id="floppy" viewBox="0 0 16 16">
  <path d="M2 2h10l3 3v9H2z" fill="none" stroke="currentColor" stroke-width="1.1"/>
  <rect x="4" y="2" width="6" height="4"/>
  <rect x="4" y="10" width="8" height="4" fill="none" stroke="currentColor" stroke-width="1.1"/>
</symbol>
<symbol id="x-lg" viewBox="0 0 16 16">
  <path d="M2 2l12 12M14 2L2 14" fill="none" stroke="currentColor" stroke-width="2" stroke-linecap="round"/>
</symbol>
<symbol id="check-lg" viewBox="0 0 16 16">
  <path d="M2 8l4 4 8-10" fill="none" stroke="currentColor" stroke-width="2.2" stroke-linecap="round" stroke-linejoin="round"/>
</symbol>
<symbol id="cake" viewBox="0 0 16 16">
  <path d="M2 11v3h12v-3" fill="none" stroke="currentColor" stroke-width="1.1"/>
  <path d="M2 11s2-2 6-2 6 2 6 2" fill="none" stroke="currentColor" stroke-width="1.1"/>
  <path d="M8 4v5M6 2c0-1.1 1-2 2-2s2 .9 2 2" fill="none" stroke="currentColor" stroke-width="1.3"/>
</symbol>
<symbol id="upload" viewBox="0 0 16 16">
  <path d="M8 2v8M5 5l3-3 3 3" fill="none" stroke="currentColor" stroke-width="1.5" stroke-linecap="round" stroke-linejoin="round"/>
  <path d="M2 11v3h12v-3" fill="none" stroke="currentColor" stroke-width="1.2"/>
</symbol>
<symbol id="download" viewBox="0 0 16 16">
  <path d="M8 2v8M5 9l3 3 3-3" fill="none" stroke="currentColor" stroke-width="1.5" stroke-linecap="round" stroke-linejoin="round"/>
  <path d="M2 11v3h12v-3" fill="none" stroke="currentColor" stroke-width="1.2"/>
</symbol>
<symbol id="person" viewBox="0 0 16 16">
  <circle cx="8" cy="5" r="3"/><path d="M2 14c0-3.3 2.7-6 6-6s6 2.7 6 6v1H2z"/>
</symbol>
<symbol id="building" viewBox="0 0 16 16">
  <path d="M2 15V4l5-2v13" fill="none" stroke="currentColor" stroke-width="1.2"/>
  <path d="M7 15V6l7-3v12" fill="none" stroke="currentColor" stroke-width="1.2"/>
  <rect x="4" y="6" width="2" height="2"/><rect x="4" y="10" width="2" height="2"/>
  <rect x="9" y="5" width="2" height="2"/><rect x="9" y="9" width="2" height="2"/>
</symbol>
<symbol id="arrow-left" viewBox="0 0 16 16">
  <path d="M8 1L1 8l7 7M2 8h13" fill="none" stroke="currentColor" stroke-width="1.8" stroke-linecap="round" stroke-linejoin="round"/>
</symbol>
<symbol id="question-circle" viewBox="0 0 16 16">
  <circle cx="8" cy="8" r="6.5" fill="none" stroke="currentColor" stroke-width="1.1"/>
  <path d="M8 11.5v-1M8 9c0-2 2.5-2 2.5-4 0-1.5-1-2.5-2.5-2.5S5.5 3.5 5.5 5" fill="none" stroke="currentColor" stroke-width="1.3" stroke-linecap="round"/>
</symbol>
<symbol id="list" viewBox="0 0 16 16">
  <path d="M2 4h2M2 8h2M2 12h2M6 4h8M6 8h8M6 12h8" fill="none" stroke="currentColor" stroke-width="1.4" stroke-linecap="round"/>
</symbol>
</svg>
